<svg width="43" height="43" viewBox="0 0 43 43" fill="none" xmlns="http://www.w3.org/2000/svg">
<path d="M9.23982 37.3638C6.27079 37.8092 -1.87565 28.8489 0.394068 20.8556C2.36627 13.9149 11.2243 11.0929 11.5985 10.9892C14.3252 10.1624 20.0731 9.22883 24.6493 7.09628C24.7782 7.03526 25.456 6.71187 26.3117 6.20238C30.0997 3.9539 31.2959 1.66882 31.4769 1.08C31.5782 0.71124 31.7064 0.35029 31.8603 0C32.0443 0.28678 41.6753 11.3644 42.8684 22.8082C43.1098 24.8585 43.0187 26.9341 42.5985 28.9556C42.4182 29.7876 42.171 30.6038 41.8593 31.3963C41.0986 33.355 39.7123 36.9336 35.3875 39.7343C35.2587 39.8167 35.0808 39.9356 34.8477 40.0729C31.0321 42.3763 26.3087 42.8675 26.3087 42.8675C20.5178 43.4777 13.2149 41.9309 12.4757 39.2401C12.3837 38.9167 12.2518 38.0716 11.5555 37.5804C10.7213 37.0007 9.59254 37.3119 9.23982 37.3638Z" fill="#B6EC4C"/>
<path d="M28.7512 13.6308C28.7512 13.4655 28.6853 13.3069 28.5681 13.19C28.4509 13.0731 28.2919 13.0074 28.1261 13.0074H25.0009C23.4271 12.9292 21.8863 13.4754 20.7152 14.5268C19.544 15.5781 18.8376 17.049 18.7503 18.6182V21.9847H15.6251C15.4593 21.9847 15.3003 22.0503 15.1831 22.1673C15.0659 22.2842 15 22.4427 15 22.6081V25.8499C15 26.0152 15.0659 26.1738 15.1831 26.2907C15.3003 26.4076 15.4593 26.4733 15.6251 26.4733H18.7503V34.8272C18.7503 34.9925 18.8162 35.1511 18.9334 35.268C19.0506 35.3849 19.2096 35.4506 19.3754 35.4506H23.1257C23.2915 35.4506 23.4505 35.3849 23.5677 35.268C23.6849 35.1511 23.7508 34.9925 23.7508 34.8272V26.4733H27.026C27.165 26.4753 27.3007 26.431 27.4117 26.3475C27.5226 26.2639 27.6025 26.1459 27.6386 26.012L28.5387 22.7702C28.5636 22.6781 28.5669 22.5815 28.5485 22.4879C28.53 22.3943 28.4903 22.3061 28.4323 22.2303C28.3743 22.1544 28.2997 22.0928 28.2141 22.0502C28.1285 22.0076 28.0343 21.9852 27.9386 21.9847H23.7508V18.6182C23.7819 18.3096 23.9272 18.0236 24.1583 17.8161C24.3895 17.6086 24.6899 17.4945 25.0009 17.496H28.1261C28.2919 17.496 28.4509 17.4303 28.5681 17.3134C28.6853 17.1965 28.7512 17.0379 28.7512 16.8726V13.6308Z" fill="white"/>
</svg>
