<svg width="40" height="40" viewBox="0 0 40 40" fill="none" xmlns="http://www.w3.org/2000/svg">
<path d="M19.8913 0C18.8445 0.951399 17.1515 2.45896 14.9985 4.20648C9.65429 8.55413 7.91896 9.18933 5.40485 12.0153C3.7062 13.9492 1.59842 16.3291 0.59108 20.1262C-0.706888 25.0187 0.0267457 31.5091 3.85293 35.6704C5.49603 37.4244 7.5885 38.6938 9.90259 39.3405C11.1836 39.6962 13.0911 40.21 15.4077 39.5664C17.2271 39.0463 18.842 37.9777 20.0324 36.5061" fill="#B6EC4C"/>
<path d="M19.8906 0C21.0024 0.954223 22.7687 2.45896 24.9894 4.20648C30.5819 8.636 32.2129 9.35308 34.5831 12.0153C36.293 13.9492 38.4008 16.3291 39.4081 20.1262C40.7061 25.0187 39.9725 31.5091 36.1463 35.6704C34.5032 37.4244 32.4107 38.6938 30.0966 39.3405C28.7986 39.7019 26.894 40.2157 24.5915 39.5664C22.7927 39.0408 21.2001 37.972 20.0317 36.5061" fill="#B6EC4C"/>
<path d="M25.7512 10.3639C25.7512 10.1986 25.6853 10.04 25.5681 9.92312C25.4509 9.80621 25.2919 9.74053 25.1261 9.74053H22.0009C20.4271 9.66234 18.8863 10.2086 17.7152 11.2599C16.544 12.3112 15.8376 13.7822 15.7503 15.3513V18.7178H12.6251C12.4593 18.7178 12.3003 18.7835 12.1831 18.9004C12.0659 19.0173 12 19.1759 12 19.3412V22.583C12 22.7484 12.0659 22.9069 12.1831 23.0239C12.3003 23.1408 12.4593 23.2065 12.6251 23.2065H15.7503V31.5603C15.7503 31.7257 15.8162 31.8842 15.9334 32.0012C16.0506 32.1181 16.2096 32.1837 16.3754 32.1837H20.1257C20.2915 32.1837 20.4505 32.1181 20.5677 32.0012C20.6849 31.8842 20.7508 31.7257 20.7508 31.5603V23.2065H24.026C24.165 23.2085 24.3007 23.1642 24.4117 23.0806C24.5226 22.9971 24.6025 22.879 24.6386 22.7451L25.5387 19.5033C25.5636 19.4112 25.5669 19.3146 25.5485 19.221C25.53 19.1274 25.4903 19.0393 25.4323 18.9634C25.3743 18.8875 25.2997 18.8259 25.2141 18.7833C25.1285 18.7408 25.0343 18.7183 24.9386 18.7178H20.7508V15.3513C20.7819 15.0427 20.9272 14.7567 21.1583 14.5492C21.3895 14.3417 21.6899 14.2276 22.0009 14.2292H25.1261C25.2919 14.2292 25.4509 14.1635 25.5681 14.0466C25.6853 13.9297 25.7512 13.7711 25.7512 13.6057V10.3639Z" fill="white"/>
</svg>
