<svg width="44" height="44" viewBox="0 0 44 44" fill="none" xmlns="http://www.w3.org/2000/svg">
<path d="M9.4547 38.2327C6.41662 38.6885 -1.91927 29.5198 0.403232 21.3406C2.42129 14.2385 11.4853 11.3509 11.8682 11.2447C14.6583 10.3987 20.5399 9.44345 25.2226 7.26131C25.3544 7.19888 26.048 6.86796 26.9237 6.34662C30.7997 4.04586 32.0237 1.70763 32.2089 1.10512C32.3126 0.727781 32.4437 0.358436 32.6012 0C32.7895 0.293449 42.6445 11.6287 43.8653 23.3386C44.1124 25.4366 44.0191 27.5604 43.5891 29.629C43.4047 30.4803 43.1518 31.3155 42.8328 32.1265C42.0544 34.1307 40.6358 37.7925 36.2105 40.6583C36.0787 40.7426 35.8967 40.8644 35.6581 41.0049C31.7538 43.3618 26.9205 43.8644 26.9205 43.8644C20.995 44.4888 13.5222 42.906 12.7658 40.1526C12.6717 39.8217 12.5367 38.957 11.8243 38.4544C10.9706 37.8612 9.81563 38.1796 9.4547 38.2327Z" fill="#B6EC4C"/>
<path d="M23.7692 15C20.8417 15 20.4768 15.0141 19.3311 15.0626C18.1806 15.1191 17.4025 15.2975 16.7158 15.5641C16.0077 15.8415 15.4045 16.2097 14.8088 16.8088C14.209 17.4045 13.8374 18.0077 13.5641 18.7158C13.2975 19.4025 13.1191 20.1806 13.0626 21.3311C13.0108 22.4775 13 22.8417 13 25.7692C13 28.6968 13.0141 29.0617 13.0626 30.2074C13.1191 31.3545 13.2975 32.136 13.5641 32.8226C13.8415 33.5308 14.2097 34.1339 14.8088 34.7297C15.4045 35.3295 16.0077 35.7011 16.7158 35.9744C17.4025 36.2376 18.184 36.4193 19.3311 36.4759C20.4775 36.5277 20.8417 36.5385 23.7692 36.5385C26.6968 36.5385 27.0617 36.5243 28.2074 36.4759C29.3544 36.4193 30.136 36.2369 30.8226 35.9744C31.5308 35.697 32.1339 35.3288 32.7297 34.7297C33.3295 34.1339 33.701 33.5341 33.9744 32.8226C34.2376 32.136 34.4193 31.3545 34.4759 30.2074C34.5277 29.061 34.5385 28.6968 34.5385 25.7692C34.5385 22.8417 34.5243 22.4768 34.4759 21.3311C34.4193 20.184 34.2369 19.3984 33.9744 18.7158C33.697 18.0077 33.3288 17.4045 32.7297 16.8088C32.1339 16.209 31.5341 15.8374 30.8226 15.5641C30.136 15.2975 29.3544 15.1191 28.2074 15.0626C27.061 15.0108 26.6968 15 23.7692 15ZM23.7692 16.9387C26.6443 16.9387 26.9876 16.9528 28.1239 17.0013C29.172 17.0504 29.7429 17.2255 30.1219 17.3736C30.6274 17.5695 30.9808 17.801 31.3632 18.1793C31.7381 18.5543 31.9697 18.9117 32.1656 19.4173C32.3137 19.7963 32.4887 20.3671 32.5378 21.4152C32.5863 22.5515 32.6004 22.8955 32.6004 25.7699C32.6004 28.6443 32.5863 28.9883 32.5338 30.1246C32.4772 31.1727 32.3022 31.7435 32.1548 32.1225C31.9508 32.6281 31.7233 32.9815 31.3477 33.3638C30.9687 33.7388 30.6079 33.9704 30.1064 34.1662C29.7321 34.3143 29.1532 34.4894 28.101 34.5385C26.9587 34.587 26.6221 34.6011 23.7396 34.6011C20.8571 34.6011 20.5212 34.587 19.3775 34.5345C18.3294 34.4779 17.7512 34.3029 17.3722 34.1555C16.8606 33.9515 16.5099 33.724 16.1342 33.3484C15.7552 32.9694 15.5143 32.6085 15.3285 32.107C15.1777 31.7328 15.0053 31.1538 14.9495 30.1017C14.9111 28.9728 14.8929 28.6228 14.8929 25.7537C14.8929 22.8861 14.9111 22.5354 14.9495 21.3923C15.0053 20.3402 15.1777 19.7626 15.3285 19.387C15.5143 18.8747 15.7559 18.5247 16.1342 18.1457C16.5092 17.7707 16.8606 17.5284 17.3722 17.3386C17.7512 17.1911 18.3153 17.0161 19.3674 16.9636C20.5098 16.9225 20.8464 16.9077 23.7248 16.9077L23.7692 16.9387ZM23.7692 20.2419C20.7124 20.2419 18.2406 22.7171 18.2406 25.7706C18.2406 28.8274 20.7158 31.2992 23.7692 31.2992C26.8261 31.2992 29.2979 28.824 29.2979 25.7706C29.2979 22.7138 26.8227 20.2419 23.7692 20.2419ZM23.7692 29.3605C21.7848 29.3605 20.1793 27.7551 20.1793 25.7706C20.1793 23.7861 21.7848 22.1806 23.7692 22.1806C25.7537 22.1806 27.3592 23.7861 27.3592 25.7706C27.3592 27.7551 25.7537 29.3605 23.7692 29.3605ZM30.8132 20.0211C30.8132 20.7367 30.2309 21.3143 29.5187 21.3143C28.8031 21.3143 28.2256 20.736 28.2256 20.0211C28.2256 19.3096 28.8072 18.7307 29.5187 18.7307C30.2302 18.7307 30.8132 19.3096 30.8132 20.0211Z" fill="white"/>
</svg>
