<svg width="43" height="42" viewBox="0 0 43 42" fill="none" xmlns="http://www.w3.org/2000/svg">
<path d="M40 21.8914C39.0486 20.8446 37.541 19.1516 35.7935 16.9986C31.4459 11.6544 30.8107 9.91907 27.9847 7.40497C26.0509 5.70632 23.671 3.59854 19.8738 2.5912C14.9813 1.29323 8.49093 2.02687 4.32962 5.85305C2.57568 7.49615 1.30627 9.58861 0.659534 11.9027C0.303818 13.1837 -0.209995 15.0912 0.433681 17.4078C0.953751 19.2272 2.02237 20.8421 3.49397 22.0325" fill="#B6EC4C"/>
<path d="M40 21.8915C39.0458 23.0032 37.541 24.7696 35.7935 26.9902C31.364 32.5828 30.6469 34.2137 27.9847 36.5839C26.0509 38.2938 23.671 40.4016 19.8738 41.409C14.9813 42.7069 8.49092 41.9733 4.32962 38.1471C2.57568 36.504 1.30626 34.4115 0.659531 32.0975C0.298168 30.7995 -0.215645 28.8949 0.433678 26.5924C0.959202 24.7935 2.02805 23.2009 3.49396 22.0326" fill="#B6EC4C"/>
<path d="M17.5 11.0666C14.6456 11.0666 14.2899 11.0804 13.1728 11.1276C12.0511 11.1828 11.2924 11.3567 10.623 11.6166C9.93249 11.887 9.34442 12.246 8.76356 12.8302C8.17877 13.411 7.81648 13.9991 7.55001 14.6895C7.2901 15.359 7.11617 16.1177 7.06104 17.2394C7.0105 18.3571 7 18.7122 7 21.5666C7 24.421 7.01378 24.7767 7.06104 25.8938C7.11617 27.0122 7.2901 27.7742 7.55001 28.4436C7.82042 29.1341 8.17943 29.7222 8.76356 30.303C9.34442 30.8878 9.93249 31.2501 10.623 31.5166C11.2924 31.7732 12.0544 31.9504 13.1728 32.0056C14.2905 32.0561 14.6456 32.0666 17.5 32.0666C20.3544 32.0666 20.7101 32.0528 21.8272 32.0056C22.9456 31.9504 23.7076 31.7726 24.377 31.5166C25.0675 31.2462 25.6556 30.8872 26.2364 30.303C26.8212 29.7222 27.1835 29.1374 27.45 28.4436C27.7066 27.7742 27.8838 27.0122 27.939 25.8938C27.9895 24.7761 28 24.421 28 21.5666C28 18.7122 27.9862 18.3565 27.939 17.2394C27.8838 16.121 27.706 15.3551 27.45 14.6895C27.1796 13.9991 26.8206 13.411 26.2364 12.8302C25.6556 12.2454 25.0708 11.8831 24.377 11.6166C23.7076 11.3567 22.9456 11.1828 21.8272 11.1276C20.7095 11.0771 20.3544 11.0666 17.5 11.0666V11.0666ZM17.5 12.9568C20.3032 12.9568 20.6379 12.9706 21.7458 13.0179C22.7677 13.0658 23.3243 13.2364 23.6938 13.3808C24.1867 13.5718 24.5313 13.7976 24.9041 14.1664C25.2697 14.532 25.4954 14.8805 25.6864 15.3734C25.8308 15.743 26.0015 16.2995 26.0494 17.3214C26.0966 18.4293 26.1104 18.7647 26.1104 21.5672C26.1104 24.3698 26.0966 24.7052 26.0454 25.8131C25.9903 26.835 25.8197 27.3915 25.6759 27.7611C25.4771 28.254 25.2552 28.5985 24.889 28.9713C24.5195 29.3369 24.1677 29.5627 23.6787 29.7537C23.3138 29.8981 22.7493 30.0687 21.7235 30.1166C20.6097 30.1639 20.2815 30.1777 17.4711 30.1777C14.6607 30.1777 14.3332 30.1639 13.2181 30.1127C12.1962 30.0576 11.6324 29.8869 11.2629 29.7432C10.7641 29.5443 10.4221 29.3225 10.0559 28.9562C9.68637 28.5867 9.4514 28.2349 9.27025 27.746C9.12323 27.381 8.95521 26.8166 8.90074 25.7907C8.86333 24.6901 8.84561 24.3488 8.84561 21.5515C8.84561 18.7555 8.86333 18.4136 8.90074 17.2991C8.95521 16.2733 9.12323 15.7101 9.27025 15.3439C9.4514 14.8444 9.68702 14.5031 10.0559 14.1336C10.4215 13.7681 10.7641 13.5318 11.2629 13.3467C11.6324 13.203 12.1824 13.0323 13.2082 12.9811C14.322 12.9411 14.6502 12.9266 17.4567 12.9266L17.5 12.9568ZM17.5 16.1774C14.5196 16.1774 12.1095 18.5908 12.1095 21.5679C12.1095 24.5483 14.5229 26.9584 17.5 26.9584C20.4804 26.9584 22.8905 24.545 22.8905 21.5679C22.8905 18.5875 20.4771 16.1774 17.5 16.1774ZM17.5 25.0681C15.5651 25.0681 13.9998 23.5028 13.9998 21.5679C13.9998 19.633 15.5651 18.0677 17.5 18.0677C19.4349 18.0677 21.0002 19.633 21.0002 21.5679C21.0002 23.5028 19.4349 25.0681 17.5 25.0681ZM24.3679 15.9622C24.3679 16.6599 23.8001 17.223 23.1057 17.223C22.4081 17.223 21.8449 16.6592 21.8449 15.9622C21.8449 15.2684 22.412 14.704 23.1057 14.704C23.7995 14.704 24.3679 15.2684 24.3679 15.9622Z" fill="white"/>
</svg>
