<svg width="46" height="45" viewBox="0 0 46 45" fill="none" xmlns="http://www.w3.org/2000/svg">
<path d="M20.1084 45.0001C21.1553 44.0486 22.8483 42.5411 25.0013 40.7935C30.3456 36.4458 32.0809 35.8106 34.5951 32.9846C36.2937 31.0507 38.4016 28.6708 39.4089 24.8736C40.7069 19.981 39.9733 13.4906 36.147 9.32919C34.5039 7.57523 32.4114 6.3058 30.0973 5.65906C28.8162 5.30334 26.9088 4.78952 24.5921 5.4332C22.7727 5.95328 21.1578 7.02192 19.9674 8.49353" fill="#B6EC4C"/>
<path d="M20.1094 45.0001C18.9976 44.0458 17.2312 42.5411 15.0106 40.7935C9.41793 36.364 7.78698 35.6469 5.41675 32.9846C3.7068 31.0507 1.59898 28.6708 0.591633 24.8736C-0.706352 19.981 0.0272923 13.4906 3.85353 9.32919C5.49665 7.57523 7.58914 6.3058 9.90326 5.65905C11.2012 5.29769 13.1059 4.78387 15.4084 5.4332C17.2073 5.95873 18.7999 7.0276 19.9683 8.49353" fill="#B6EC4C"/>
<path d="M14.6709 32.8666H10.3447V18.935H14.6709V32.8666ZM12.5054 17.0346C11.1221 17.0346 10 15.8888 10 14.5054C10 13.841 10.264 13.2037 10.7338 12.7338C11.2037 12.264 11.841 12 12.5054 12C13.1699 12 13.8072 12.264 14.2771 12.7338C14.7469 13.2037 15.0109 13.841 15.0109 14.5054C15.0109 15.8888 13.8883 17.0346 12.5054 17.0346ZM30.8624 32.8666H26.5455V26.0848C26.5455 24.4685 26.5129 22.3958 24.2962 22.3958C22.047 22.3958 21.7023 24.1518 21.7023 25.9683V32.8666H17.3808V18.935H21.53V20.8354H21.5905C22.1681 19.7408 23.5789 18.5857 25.6838 18.5857C30.0622 18.5857 30.867 21.4689 30.867 25.2138V32.8666H30.8624Z" fill="white"/>
</svg>
