<svg width="49" height="44" viewBox="0 0 49 44" fill="none" xmlns="http://www.w3.org/2000/svg">
<path d="M9.4547 38.2327C6.41662 38.6885 -1.91927 29.5198 0.403232 21.3406C2.42129 14.2385 11.4853 11.3509 11.8682 11.2447C14.6583 10.3987 20.5399 9.44345 25.2226 7.26131C25.3544 7.19888 26.048 6.86796 26.9237 6.34662C30.7997 4.04586 32.0237 1.70763 32.2089 1.10512C32.3126 0.727781 32.4437 0.358436 32.6012 0C32.7895 0.293449 42.6445 11.6287 43.8653 23.3386C44.1124 25.4366 44.0191 27.5604 43.5891 29.629C43.4047 30.4803 43.1518 31.3155 42.8328 32.1265C42.0544 34.1307 40.6358 37.7925 36.2105 40.6583C36.0787 40.7426 35.8967 40.8644 35.6581 41.0049C31.7538 43.3618 26.9205 43.8644 26.9205 43.8644C20.995 44.4888 13.5222 42.906 12.7658 40.1526C12.6717 39.8217 12.5367 38.957 11.8243 38.4544C10.9706 37.8612 9.81563 38.1796 9.4547 38.2327Z" fill="#B6EC4C"/>
<path d="M17.6709 34.8666H13.3447V20.935H17.6709V34.8666ZM15.5054 19.0346C14.1221 19.0346 13 17.8888 13 16.5054C13 15.841 13.264 15.2037 13.7338 14.7338C14.2037 14.264 14.841 14 15.5054 14C16.1699 14 16.8072 14.264 17.2771 14.7338C17.7469 15.2037 18.0109 15.841 18.0109 16.5054C18.0109 17.8888 16.8883 19.0346 15.5054 19.0346ZM33.8624 34.8666H29.5455V28.0848C29.5455 26.4685 29.5129 24.3958 27.2962 24.3958C25.047 24.3958 24.7023 26.1518 24.7023 27.9683V34.8666H20.3808V20.935H24.53V22.8354H24.5905C25.1681 21.7408 26.5789 20.5857 28.6838 20.5857C33.0622 20.5857 33.867 23.4689 33.867 27.2138V34.8666H33.8624Z" fill="white"/>
</svg>
