<svg width="45" height="45" viewBox="0 0 45 45" fill="none" xmlns="http://www.w3.org/2000/svg">
<g clip-path="url(#clip0_613_5538)">
<path d="M9.74153 38.961C6.66808 39.4246 -1.76485 30.0995 0.584685 21.7808C2.62624 14.5576 11.7958 11.6207 12.1831 11.5127C15.0058 10.6523 20.9558 9.6807 25.693 7.46134C25.8263 7.39784 26.528 7.06128 27.4139 6.53105C31.3351 4.19104 32.5733 1.81292 32.7607 1.20014C32.8656 0.816367 32.9982 0.440722 33.1575 0.0761719C33.348 0.374627 43.3177 11.9032 44.5528 23.8129C44.8027 25.9466 44.7084 28.1067 44.2734 30.2106C44.0868 31.0764 43.8309 31.9258 43.5082 32.7506C42.7208 34.789 41.2857 38.5133 36.8088 41.428C36.6755 41.5138 36.4913 41.6376 36.25 41.7805C32.3003 44.1776 27.4107 44.6888 27.4107 44.6888C21.4162 45.3238 13.8564 43.7141 13.0912 40.9137C12.996 40.5771 12.8594 39.6976 12.1387 39.1865C11.2751 38.5832 10.1067 38.907 9.74153 38.961Z" fill="#0C492A"/>
<path d="M11.8652 25.8757H33.887" stroke="#D6FF86" stroke-width="3.14596" stroke-linecap="round" stroke-linejoin="round"/>
</g>
<defs>
<clipPath id="clip0_613_5538">
<rect width="45" height="45" fill="white"/>
</clipPath>
</defs>
</svg>
