<svg width="45" height="45" viewBox="0 0 45 45" fill="none" xmlns="http://www.w3.org/2000/svg">
<path d="M9.56477 38.8849C6.49132 39.3484 -1.94161 30.0233 0.407927 21.7047C2.44948 14.4814 11.619 11.5445 12.0064 11.4365C14.829 10.5761 20.7791 9.60453 25.5162 7.38517C25.6496 7.32167 26.3513 6.98511 27.2371 6.45488C31.1583 4.11487 32.3966 1.73675 32.5839 1.12397C32.6888 0.740195 32.8214 0.36455 32.9808 0C33.1713 0.298455 43.1409 11.8271 44.376 23.7367C44.6259 25.8705 44.5316 28.0305 44.0966 30.1344C43.91 31.0002 43.6542 31.8496 43.3314 32.6745C42.544 34.7128 41.1089 38.4372 36.6321 41.3519C36.4987 41.4376 36.3146 41.5614 36.0733 41.7043C32.1235 44.1015 27.2339 44.6126 27.2339 44.6126C21.2394 45.2477 13.6796 43.6379 12.9145 40.8375C12.8192 40.5009 12.6827 39.6215 11.9619 39.1103C11.0983 38.507 9.92991 38.8309 9.56477 38.8849Z" fill="#0C492A"/>
<path d="M23.4957 14C22.9433 14 22.4136 14.2194 22.0231 14.61C21.6325 15.0006 21.4131 15.5303 21.4131 16.0826V24.4131H13.0826C12.5303 24.4131 12.0006 24.6325 11.61 25.0231C11.2194 25.4136 11 25.9433 11 26.4957C11 27.048 11.2194 27.5778 11.61 27.9683C12.0006 28.3589 12.5303 28.5783 13.0826 28.5783H21.4131V36.9088C21.4131 37.4611 21.6325 37.9908 22.0231 38.3814C22.4136 38.772 22.9433 38.9914 23.4957 38.9914C24.048 38.9914 24.5778 38.772 24.9683 38.3814C25.3589 37.9908 25.5783 37.4611 25.5783 36.9088V28.5783H33.9088C34.4611 28.5783 34.9908 28.3589 35.3814 27.9683C35.772 27.5778 35.9914 27.048 35.9914 26.4957C35.9914 25.9433 35.772 25.4136 35.3814 25.0231C34.9908 24.6325 34.4611 24.4131 33.9088 24.4131H25.5783V16.0826C25.5783 15.5303 25.3589 15.0006 24.9683 14.61C24.5778 14.2194 24.048 14 23.4957 14Z" fill="#D6FF86"/>
</svg>
