<svg width="38" height="38" viewBox="0 0 38 38" fill="none" xmlns="http://www.w3.org/2000/svg">
<path d="M14.0916 18.7938C14.0916 19.7231 14.367 20.6314 14.8832 21.4041C15.3993 22.1768 16.1329 22.779 16.9912 23.1346C17.8495 23.4902 18.794 23.5832 19.7051 23.402C20.6163 23.2207 21.4533 22.7732 22.1102 22.1161C22.7671 21.459 23.2145 20.6218 23.3957 19.7104C23.577 18.799 23.4839 17.8543 23.1284 16.9958C22.7729 16.1372 22.1708 15.4034 21.3984 14.8872C20.6259 14.3709 19.7178 14.0953 18.7888 14.0953C17.543 14.0953 16.3482 14.5904 15.4673 15.4715C14.5864 16.3526 14.0916 17.5477 14.0916 18.7938ZM21.1374 18.7938C21.1374 19.2584 20.9996 19.7126 20.7416 20.0989C20.4835 20.4853 20.1167 20.7864 19.6875 20.9642C19.2584 21.142 18.7862 21.1885 18.3306 21.0979C17.875 21.0072 17.4565 20.7835 17.1281 20.4549C16.7996 20.1264 16.5759 19.7078 16.4853 19.2521C16.3947 18.7964 16.4412 18.324 16.6189 17.8948C16.7967 17.4655 17.0977 17.0986 17.484 16.8405C17.8702 16.5823 18.3243 16.4446 18.7888 16.4446C19.4117 16.4446 20.009 16.6921 20.4495 17.1326C20.8899 17.5732 21.1374 18.1707 21.1374 18.7938Z" fill="white"/>
<path d="M18.789 31.9141L12.2129 25.348L10.5688 27.016L18.789 35.2383L27.0091 27.016L25.3533 25.3598L18.789 31.9141Z" fill="white"/>
<path d="M18.789 5.6734L25.3416 12.216L27.0091 10.5715L18.789 2.34924L10.5688 10.5715L12.2246 12.2277L18.789 5.6734Z" fill="white"/>
</svg>
