<svg width="44" height="40" viewBox="0 0 44 40" fill="none" xmlns="http://www.w3.org/2000/svg">
<path d="M4 20.1087C4.9514 21.1555 6.45896 22.8485 8.20648 25.0015C12.5541 30.3457 13.1893 32.081 16.0153 34.5951C17.9492 36.2938 20.3291 38.4016 24.1262 39.4089C29.0187 40.7069 35.5091 39.9733 39.6704 36.1471C41.4244 34.504 42.6938 32.4115 43.3405 30.0974C43.6962 28.8164 44.21 26.9089 43.5664 24.5923C43.0463 22.7729 41.9777 21.158 40.5061 19.9676" fill="#B6EC4C"/>
<path d="M4 20.1085C4.95422 18.9968 6.45896 17.2304 8.20648 15.0098C12.636 9.41721 13.3531 7.78628 16.0153 5.41608C17.9492 3.70614 20.3291 1.59836 24.1262 0.591021C29.0187 -0.706949 35.5091 0.0266857 39.6704 3.85287C41.4244 5.49597 42.6938 7.58844 43.3405 9.90254C43.7019 11.2005 44.2157 13.1051 43.5664 15.4076C43.0408 17.2065 41.972 18.7991 40.5061 19.9674" fill="#B6EC4C"/>
<path d="M36.5386 14.9677C36.4174 14.5286 36.1756 14.127 35.8373 13.8034C35.4989 13.4798 35.076 13.2455 34.6109 13.1239C32.8897 12.671 25.9934 12.671 25.9934 12.671C23.1178 12.6385 20.243 12.7826 17.3873 13.1023C16.9221 13.2328 16.4998 13.4725 16.1605 13.7989C15.8212 14.1253 15.5761 14.5276 15.4481 14.9677C15.1396 16.6304 14.9898 18.3156 15.0006 20.0033C14.9891 21.691 15.1389 23.3763 15.4481 25.0389C15.5734 25.4779 15.8181 25.8787 16.1581 26.202C16.4981 26.5253 16.9217 26.7598 17.3873 26.8827C19.1315 27.3356 25.9934 27.3356 25.9934 27.3356C28.8728 27.3681 31.7514 27.2241 34.6109 26.9043C35.076 26.7827 35.4989 26.5484 35.8373 26.2248C36.1756 25.9011 36.4174 25.4996 36.5386 25.0605C36.855 23.3986 37.0086 21.7131 36.9976 20.0249C37.0214 18.3291 36.8676 16.6352 36.5386 14.9677ZM23.8017 23.1411V16.8655L29.5391 20.0033L23.8017 23.1411Z" fill="white"/>
</svg>
