<svg width="120" height="120" viewBox="0 0 120 120" fill="none" xmlns="http://www.w3.org/2000/svg">
<path d="M26.1014 104.271C17.8848 105.514 -4.65998 80.5085 1.62132 58.2018C7.07926 38.8324 31.5933 30.9569 32.6289 30.6675C40.1749 28.3602 56.0819 25.7549 68.7464 19.8036C69.1029 19.6333 70.9788 18.7308 73.347 17.309C83.83 11.0342 87.1404 4.65716 87.6412 3.01396C87.9216 1.98486 88.2763 0.977553 88.7022 0C89.2115 0.800317 115.865 31.7147 119.167 63.6507C119.835 69.3725 119.582 75.1648 118.42 80.8064C117.921 83.1282 117.237 85.4059 116.374 87.6176C114.269 93.0836 110.432 103.071 98.4637 110.886C98.1072 111.116 97.6149 111.448 96.9698 111.831C86.4104 118.26 73.3385 119.63 73.3385 119.63C57.3127 121.333 37.1022 117.017 35.0565 109.507C34.8019 108.605 34.4369 106.246 32.51 104.876C30.2012 103.258 27.0776 104.126 26.1014 104.271Z" fill="#FDC41F"/>
</svg>
