<svg width="120" height="120" viewBox="0 0 120 120" fill="none" xmlns="http://www.w3.org/2000/svg">
<path d="M25.9763 103.896C17.7804 105.132 -4.70741 80.2653 1.55802 58.0823C7.00217 38.8203 31.4543 30.9885 32.4873 30.7006C40.0142 28.4061 55.881 25.8153 68.5135 19.897C68.8691 19.7277 70.7403 18.8302 73.1025 17.4162C83.559 11.1762 86.8611 4.83456 87.3606 3.20046C87.6403 2.17707 87.994 1.17535 88.419 0.203217C88.927 0.999096 115.513 31.7421 118.806 63.501C119.473 69.1911 119.221 74.9513 118.061 80.5617C117.564 82.8705 116.881 85.1356 116.021 87.3351C113.921 92.7708 110.094 102.702 98.1558 110.475C97.8002 110.703 97.3091 111.034 96.6656 111.415C86.1329 117.807 73.094 119.17 73.094 119.17C57.1087 120.864 36.9493 116.571 34.9088 109.103C34.6548 108.206 34.2907 105.86 32.3687 104.497C30.0657 102.889 26.95 103.752 25.9763 103.896Z" fill="#0C492A"/>
</svg>
